<svg width="32" height="33" viewBox="0 0 32 33" fill="none" xmlns="http://www.w3.org/2000/svg">
<g clip-path="url(#clip0_162_108)">
<path d="M23.715 12.0224C26.0497 13.4949 28.91 14.3614 31.9991 14.3614V9.11666C31.4144 9.11677 30.8313 9.06292 30.2593 8.956V13.0843C27.1705 13.0843 24.3106 12.218 21.9753 10.7456V21.4486C21.9753 26.8028 17.0558 31.1429 10.9878 31.1429C8.72372 31.1429 6.61922 30.539 4.87109 29.5032C6.86634 31.3033 9.64884 32.4198 12.7271 32.4198C18.7956 32.4198 23.7152 28.0798 23.7152 22.7253V12.0224H23.715ZM25.8612 6.73112C24.668 5.58099 23.8845 4.09465 23.715 2.45139V1.77686H22.0663C22.4813 3.86535 23.897 5.64963 25.8612 6.73112ZM8.70909 25.3946C8.04246 24.6235 7.6821 23.68 7.68372 22.7099C7.68372 20.2612 9.93384 18.2756 12.71 18.2756C13.2272 18.2754 13.7415 18.3455 14.2346 18.4834V13.1214C13.6583 13.0518 13.0768 13.0221 12.4956 13.033V17.2065C12.0023 17.0684 11.4877 16.9984 10.9702 16.9988C8.19422 16.9988 5.94422 18.9841 5.94422 21.4332C5.94422 23.165 7.06884 24.6642 8.70909 25.3946Z" fill="white"/>
<path d="M21.9755 10.7455C24.3109 12.2179 27.1705 13.0842 30.2595 13.0842V8.95589C28.5352 8.63181 27.0089 7.83688 25.8613 6.73112C23.8969 5.64952 22.4815 3.86524 22.0665 1.77686H17.7361V22.725C17.7262 25.1672 15.48 27.1446 12.7099 27.1446C11.0776 27.1446 9.62737 26.4581 8.709 25.3945C7.069 24.6642 5.94425 23.1649 5.94425 21.4333C5.94425 18.9845 8.19425 16.9989 10.9702 16.9989C11.5021 16.9989 12.0147 17.072 12.4956 17.2066V13.0331C6.53412 13.1418 1.73975 17.4395 1.73975 22.7252C1.73975 25.3637 2.93362 27.7557 4.87137 29.5034C6.6195 30.539 8.72387 31.1431 10.9881 31.1431C17.0562 31.1431 21.9756 26.8027 21.9756 21.4486V10.7456L21.9755 10.7455Z" fill="black"/>
<path d="M30.2594 8.95572V7.8397C28.7045 7.84178 27.1803 7.45759 25.8611 6.73106C27.0289 7.85902 28.5665 8.63686 30.2594 8.95595V8.95572ZM22.0662 1.77669C22.0267 1.57714 21.9963 1.37626 21.9753 1.17454V0.5H15.996V21.4484C15.9865 23.8903 13.7403 25.8677 10.97 25.8677C10.1847 25.8688 9.41005 25.7067 8.70875 25.3947C9.62712 26.4581 11.0774 27.1444 12.7096 27.1444C15.4796 27.1444 17.7261 25.1673 17.7359 22.7251V1.7768H22.0662V1.77669ZM12.4958 13.033V11.8447C11.9961 11.7844 11.4924 11.7542 10.9881 11.7544C4.91937 11.7544 0 16.0947 0 21.4484C0 24.805 1.93338 27.7631 4.87138 29.5031C2.93363 27.7555 1.73975 25.3634 1.73975 22.725C1.73975 17.4395 6.534 13.1417 12.4958 13.033Z" fill="#FFC457"/>
</g>
<defs>
<clipPath id="clip0_162_108">
<rect width="32" height="32" fill="white" transform="translate(0 0.5)"/>
</clipPath>
</defs>
</svg>
