<svg width="32" height="33" viewBox="0 0 32 33" fill="none" xmlns="http://www.w3.org/2000/svg">
<g clip-path="url(#clip0_162_112)">
<path d="M0.13375 16.3035C0.132875 19.0889 0.86625 21.808 2.2605 24.2048L0 32.3942L8.44637 30.1967C10.7736 31.4558 13.3939 32.1196 16.0601 32.1206H16.067C24.848 32.1206 31.9963 25.03 32 16.3162C32.0015 12.0932 30.3455 8.12208 27.3375 5.13479C24.3291 2.14788 20.3291 0.501736 16.067 0.5C7.2845 0.5 0.13725 7.58961 0.13375 16.3035ZM5.16375 23.792L4.84837 23.2953C3.52262 21.2036 2.82288 18.7865 2.82387 16.3045C2.82675 9.06174 8.76725 3.16915 16.072 3.16915C19.6095 3.17064 22.934 4.53895 25.4345 7.02155C27.9349 9.5044 29.3108 12.8049 29.3099 16.3152C29.3066 23.558 23.366 29.4513 16.067 29.4513H16.0618C13.6851 29.4501 11.3542 28.8168 9.3215 27.62L8.83775 27.3353L3.8255 28.6393L5.16375 23.7919V23.792Z" fill="url(#paint0_linear_162_112)"/>
<path d="M12.0849 9.69662C11.7867 9.03888 11.4728 9.02561 11.1892 9.01407C10.9569 9.00415 10.6914 9.0049 10.4262 9.0049C10.1607 9.0049 9.72932 9.104 9.36469 9.49904C8.99969 9.89445 7.97119 10.85 7.97119 12.7934C7.97119 14.737 9.39782 16.6152 9.59669 16.879C9.79582 17.1423 12.3508 21.2582 16.3973 22.8415C19.7603 24.1574 20.4447 23.8957 21.1746 23.8297C21.9046 23.764 23.5301 22.8744 23.8617 21.952C24.1936 21.0297 24.1936 20.2391 24.0941 20.0739C23.9946 19.9093 23.7291 19.8105 23.3309 19.613C22.9327 19.4154 20.9754 18.4598 20.6106 18.3279C20.2456 18.1962 19.9802 18.1305 19.7147 18.526C19.4492 18.9209 18.6868 19.8105 18.4544 20.0739C18.2223 20.338 17.9899 20.3708 17.5919 20.1733C17.1936 19.9751 15.9114 19.5584 14.3903 18.2128C13.2068 17.1658 12.4078 15.8727 12.1756 15.4772C11.9433 15.0823 12.1507 14.8682 12.3503 14.6714C12.5292 14.4944 12.7486 14.2101 12.9478 13.9795C13.1463 13.7488 13.2126 13.5842 13.3453 13.3208C13.4782 13.0571 13.4117 12.8264 13.3123 12.6288C13.2126 12.4313 12.4389 10.4776 12.0849 9.69662Z" fill="#FFC457"/>
</g>
<defs>
<linearGradient id="paint0_linear_162_112" x1="1600" y1="3189.92" x2="1600" y2="0.5" gradientUnits="userSpaceOnUse">
<stop stop-color="#FFC457"/>
<stop offset="1" stop-color="#FFC457"/>
</linearGradient>
<clipPath id="clip0_162_112">
<rect width="32" height="32" fill="white" transform="translate(0 0.5)"/>
</clipPath>
</defs>
</svg>
