<svg width="32" height="33" viewBox="0 0 32 33" fill="none" xmlns="http://www.w3.org/2000/svg">
<g clip-path="url(#clip0_167_87)">
<path d="M16 0.5C11.658 0.5 11.112 0.52 9.406 0.596C7.7 0.676 6.538 0.944 5.52 1.34C4.45219 1.74164 3.48498 2.37165 2.686 3.186C1.87215 3.98539 1.24221 4.95248 0.84 6.02C0.444 7.036 0.174 8.2 0.096 9.9C0.02 11.61 0 12.154 0 16.502C0 20.846 0.02 21.39 0.096 23.096C0.176 24.8 0.444 25.962 0.84 26.98C1.25 28.032 1.796 28.924 2.686 29.814C3.574 30.704 4.466 31.252 5.518 31.66C6.538 32.056 7.698 32.326 9.402 32.404C11.11 32.48 11.654 32.5 16 32.5C20.346 32.5 20.888 32.48 22.596 32.404C24.298 32.324 25.464 32.056 26.482 31.66C27.5491 31.2582 28.5156 30.6282 29.314 29.814C30.204 28.924 30.75 28.032 31.16 26.98C31.554 25.962 31.824 24.8 31.904 23.096C31.98 21.39 32 20.846 32 16.5C32 12.154 31.98 11.61 31.904 9.902C31.824 8.2 31.554 7.036 31.16 6.02C30.7578 4.95245 30.1279 3.98535 29.314 3.186C28.5153 2.37135 27.548 1.74129 26.48 1.34C25.46 0.944 24.296 0.674 22.594 0.596C20.886 0.52 20.344 0.5 15.996 0.5H16.002H16ZM14.566 3.384H16.002C20.274 3.384 20.78 3.398 22.466 3.476C24.026 3.546 24.874 3.808 25.438 4.026C26.184 4.316 26.718 4.664 27.278 5.224C27.838 5.784 28.184 6.316 28.474 7.064C28.694 7.626 28.954 8.474 29.024 10.034C29.102 11.72 29.118 12.226 29.118 16.496C29.118 20.766 29.102 21.274 29.024 22.96C28.954 24.52 28.692 25.366 28.474 25.93C28.2175 26.6247 27.8081 27.2529 27.276 27.768C26.716 28.328 26.184 28.674 25.436 28.964C24.876 29.184 24.028 29.444 22.466 29.516C20.78 29.592 20.274 29.61 16.002 29.61C11.73 29.61 11.222 29.592 9.536 29.516C7.976 29.444 7.13 29.184 6.566 28.964C5.871 28.7078 5.24225 28.2992 4.726 27.768C4.1935 27.2521 3.78345 26.6233 3.526 25.928C3.308 25.366 3.046 24.518 2.976 22.958C2.9 21.272 2.884 20.766 2.884 16.492C2.884 12.22 2.9 11.716 2.976 10.03C3.048 8.47 3.308 7.622 3.528 7.058C3.818 6.312 4.166 5.778 4.726 5.218C5.286 4.658 5.818 4.312 6.566 4.022C7.13 3.802 7.976 3.542 9.536 3.47C11.012 3.402 11.584 3.382 14.566 3.38V3.384ZM24.542 6.04C24.2899 6.04 24.0402 6.08966 23.8072 6.18615C23.5743 6.28264 23.3626 6.42407 23.1844 6.60236C23.0061 6.78064 22.8646 6.9923 22.7682 7.22525C22.6717 7.45819 22.622 7.70786 22.622 7.96C22.622 8.21214 22.6717 8.46181 22.7682 8.69475C22.8646 8.9277 23.0061 9.13936 23.1844 9.31765C23.3626 9.49593 23.5743 9.63736 23.8072 9.73385C24.0402 9.83034 24.2899 9.88 24.542 9.88C25.0512 9.88 25.5396 9.67772 25.8996 9.31765C26.2597 8.95757 26.462 8.46922 26.462 7.96C26.462 7.45078 26.2597 6.96242 25.8996 6.60236C25.5396 6.24229 25.0512 6.04 24.542 6.04ZM16.002 8.284C14.9121 8.267 13.8298 8.46697 12.818 8.87228C11.8061 9.27759 10.885 9.88014 10.1083 10.6448C9.33157 11.4096 8.71473 12.3211 8.29368 13.3265C7.87264 14.3319 7.6558 15.411 7.6558 16.501C7.6558 17.591 7.87264 18.6701 8.29368 19.6755C8.71473 20.6809 9.33157 21.5924 10.1083 22.3572C10.885 23.1219 11.8061 23.7244 12.818 24.1297C13.8298 24.535 14.9121 24.735 16.002 24.718C18.1591 24.6843 20.2164 23.8038 21.73 22.2665C23.2435 20.7292 24.0918 18.6583 24.0918 16.501C24.0918 14.3437 23.2435 12.2728 21.73 10.7355C20.2164 9.19817 18.1591 8.31765 16.002 8.284ZM16.002 11.166C17.4167 11.166 18.7734 11.728 19.7737 12.7283C20.774 13.7286 21.336 15.0853 21.336 16.5C21.336 17.9147 20.774 19.2714 19.7737 20.2717C18.7734 21.272 17.4167 21.834 16.002 21.834C14.5873 21.834 13.2306 21.272 12.2303 20.2717C11.23 19.2714 10.668 17.9147 10.668 16.5C10.668 15.0853 11.23 13.7286 12.2303 12.7283C13.2306 11.728 14.5873 11.166 16.002 11.166Z" fill="#FFC457"/>
</g>
<defs>
<clipPath id="clip0_167_87">
<rect width="32" height="32" fill="white" transform="translate(0 0.5)"/>
</clipPath>
</defs>
</svg>
